{
  "accessors": [
    {
      "bufferView": 2,
      "componentType": 5126,
      "count": 240,
      "max": [
        -39.604923248291016,
        0.49584418535232544,
        18.444250106811523
      ],
      "min": [
        -43.360801696777344,
        -21.24395751953125,
        13.420071601867676
      ],
      "type": "VEC3"
    },
    {
      "bufferView": 2,
      "byteOffset": 2880,
      "componentType": 5126,
      "count": 240,
      "max": [
        0.9800521731376648,
        0.15182043612003326,
        -0.12975071370601654
      ],
      "min": [
        0.9798547029495239,
        0.1504669338464737,
        -0.12985801696777344
      ],
      "type": "VEC3"
    },
    {
      "bufferView": 1,
      "componentType": 5126,
      "count": 240,
      "max": [
        -0.4821200370788574,
        5.067049980163574
      ],
      "min": [
        -22.40421485900879,
        0.0
      ],
      "type": "VEC2"
    },
    {
      "bufferView": 0,
      "componentType": 5125,
      "count": 684,
      "type": "SCALAR"
    },
    {
      "bufferView": 2,
      "byteOffset": 5760,
      "componentType": 5126,
      "count": 216,
      "max": [
        37.50704574584961,
        56.911197662353516,
        88.2629623413086
      ],
      "min": [
        -39.13810729980469,
        -61.890193939208984,
        17.57958221435547
      ],
      "type": "VEC3"
    },
    {
      "bufferView": 2,
      "byteOffset": 8352,
      "componentType": 5126,
      "count": 216,
      "max": [
        -0.8414911031723022,
        -0.5402393341064453,
        0.0
      ],
      "min": [
        -0.8415114283561707,
        -0.540270984172821,
        0.0
      ],
      "type": "VEC3"
    },
    {
      "bufferView": 1,
      "byteOffset": 1920,
      "componentType": 5126,
      "count": 216,
      "max": [
        72.34403228759766,
        88.2629623413086
      ],
      "min": [
        -69.03543090820313,
        17.57958221435547
      ],
      "type": "VEC2"
    },
    {
      "bufferView": 0,
      "byteOffset": 2736,
      "componentType": 5125,
      "count": 594,
      "type": "SCALAR"
    },
    {
      "bufferView": 2,
      "byteOffset": 10944,
      "componentType": 5126,
      "count": 12,
      "max": [
        21.579776763916016,
        34.906368255615234,
        61.48802947998047
      ],
      "min": [
        -25.08466911315918,
        -38.00790786743164,
        17.695533752441406
      ],
      "type": "VEC3"
    },
    {
      "bufferView": 2,
      "byteOffset": 11088,
      "componentType": 5126,
      "count": 12,
      "max": [
        -0.84149569272995,
        -0.5402635931968689,
        -0.0
      ],
      "min": [
        -0.841495931148529,
        -0.5402637720108032,
        -0.0
      ],
      "type": "VEC3"
    },
    {
      "bufferView": 1,
      "byteOffset": 3648,
      "componentType": 5126,
      "count": 12,
      "max": [
        43.64226531982422,
        61.48802947998047
      ],
      "min": [
        -42.92589569091797,
        17.695533752441406
      ],
      "type": "VEC2"
    },
    {
      "bufferView": 0,
      "byteOffset": 5112,
      "componentType": 5125,
      "count": 18,
      "type": "SCALAR"
    },
    {
      "bufferView": 2,
      "byteOffset": 11232,
      "componentType": 5126,
      "count": 156,
      "max": [
        28.028247833251953,
        59.99232482910156,
        82.31281280517578
      ],
      "min": [
        -38.51673889160156,
        -43.655818939208984,
        35.381832122802734
      ],
      "type": "VEC3"
    },
    {
      "bufferView": 2,
      "byteOffset": 13104,
      "componentType": 5126,
      "count": 156,
      "max": [
        0.0,
        1.0,
        3.488999209366739e-05
      ],
      "min": [
        -0.8415244221687317,
        -0.5402759313583374,
        -3.8511665479745716e-05
      ],
      "type": "VEC3"
    },
    {
      "bufferView": 1,
      "byteOffset": 3744,
      "componentType": 5126,
      "count": 156,
      "max": [
        51.87882995605469,
        82.31281280517578
      ],
      "min": [
        -71.29248046875,
        35.381832122802734
      ],
      "type": "VEC2"
    },
    {
      "bufferView": 0,
      "byteOffset": 5184,
      "componentType": 5125,
      "count": 429,
      "type": "SCALAR"
    },
    {
      "bufferView": 2,
      "byteOffset": 14976,
      "componentType": 5126,
      "count": 235,
      "max": [
        -23.225950241088867,
        59.99232482910156,
        62.17290496826172
      ],
      "min": [
        -41.77753448486328,
        33.57590866088867,
        35.381832122802734
      ],
      "type": "VEC3"
    },
    {
      "bufferView": 2,
      "byteOffset": 17796,
      "componentType": 5126,
      "count": 235,
      "max": [
        0.5400015711784363,
        0.841032087802887,
        0.9988919496536255
      ],
      "min": [
        -0.5399665832519531,
        -0.841088056564331,
        -0.9930974841117859
      ],
      "type": "VEC3"
    },
    {
      "bufferView": 1,
      "byteOffset": 4992,
      "componentType": 5126,
      "count": 235,
      "max": [
        4.8125,
        83.33267211914063
      ],
      "min": [
        -4.8125,
        -51.15015411376953
      ],
      "type": "VEC2"
    },
    {
      "bufferView": 0,
      "byteOffset": 6900,
      "componentType": 5125,
      "count": 354,
      "type": "SCALAR"
    },
    {
      "bufferView": 2,
      "byteOffset": 20616,
      "componentType": 5126,
      "count": 59,
      "max": [
        -27.27564811706543,
        57.898799896240234,
        62.17290496826172
      ],
      "min": [
        -41.77753448486328,
        33.57590866088867,
        35.381832122802734
      ],
      "type": "VEC3"
    },
    {
      "bufferView": 2,
      "byteOffset": 21324,
      "componentType": 5126,
      "count": 59,
      "max": [
        -0.8414930105209351,
        -0.5402288436889648,
        1.5637162960047135e-06
      ],
      "min": [
        -0.841518223285675,
        -0.5402679443359375,
        -3.101329639321193e-05
      ],
      "type": "VEC3"
    },
    {
      "bufferView": 1,
      "byteOffset": 6872,
      "componentType": 5126,
      "count": 59,
      "max": [
        -42.990028381347656,
        62.17290496826172
      ],
      "min": [
        -71.29248046875,
        35.381832122802734
      ],
      "type": "VEC2"
    },
    {
      "bufferView": 0,
      "byteOffset": 8316,
      "componentType": 5125,
      "count": 159,
      "type": "SCALAR"
    },
    {
      "bufferView": 2,
      "byteOffset": 22032,
      "componentType": 5126,
      "count": 293,
      "max": [
        96.06234741210938,
        96.06234741210938,
        95.27628326416016
      ],
      "min": [
        -51.95674514770508,
        -80.92601013183594,
        -95.68183898925781
      ],
      "type": "VEC3"
    },
    {
      "bufferView": 2,
      "byteOffset": 25548,
      "componentType": 5126,
      "count": 293,
      "max": [
        0.41704168915748596,
        0.7480599880218506,
        1.2983642250219418e-07
      ],
      "min": [
        -0.9759880304336548,
        -0.9759880304336548,
        -0.9983137845993042
      ],
      "type": "VEC3"
    },
    {
      "bufferView": 1,
      "byteOffset": 7344,
      "componentType": 5126,
      "count": 293,
      "max": [
        96.16923522949219,
        12.834033966064453
      ],
      "min": [
        -96.16923522949219,
        -95.68183898925781
      ],
      "type": "VEC2"
    },
    {
      "bufferView": 0,
      "byteOffset": 8952,
      "componentType": 5125,
      "count": 441,
      "type": "SCALAR"
    },
    {
      "bufferView": 2,
      "byteOffset": 29064,
      "componentType": 5126,
      "count": 140,
      "max": [
        24.872638702392578,
        -5.707268238067627,
        82.31281280517578
      ],
      "min": [
        -0.8663979768753052,
        -45.68180847167969,
        38.54698944091797
      ],
      "type": "VEC3"
    },
    {
      "bufferView": 2,
      "byteOffset": 30744,
      "componentType": 5126,
      "count": 140,
      "max": [
        1.0,
        0.0,
        4.973322120349621e-06
      ],
      "min": [
        -0.841507613658905,
        -0.5402681827545166,
        -2.629941945997416e-06
      ],
      "type": "VEC3"
    },
    {
      "bufferView": 1,
      "byteOffset": 9688,
      "componentType": 5126,
      "count": 140,
      "max": [
        51.87882995605469,
        82.31281280517578
      ],
      "min": [
        4.334558963775635,
        38.54698944091797
      ],
      "type": "VEC2"
    },
    {
      "bufferView": 0,
      "byteOffset": 10716,
      "componentType": 5125,
      "count": 393,
      "type": "SCALAR"
    },
    {
      "bufferView": 2,
      "byteOffset": 32424,
      "componentType": 5126,
      "count": 542,
      "max": [
        28.028247833251953,
        -3.6475131511688232,
        82.31281280517578
      ],
      "min": [
        -0.8663979768753052,
        -45.68180847167969,
        38.54698944091797
      ],
      "type": "VEC3"
    },
    {
      "bufferView": 2,
      "byteOffset": 38928,
      "componentType": 5126,
      "count": 542,
      "max": [
        0.5402637720108032,
        0.8414913415908813,
        0.9999759197235107
      ],
      "min": [
        -0.5402607917785645,
        -0.8414956331253052,
        -0.9999666810035706
      ],
      "type": "VEC3"
    },
    {
      "bufferView": 1,
      "byteOffset": 10808,
      "componentType": 5126,
      "count": 542,
      "max": [
        3.8125,
        85.23300170898438
      ],
      "min": [
        -3.8125,
        -45.018829345703125
      ],
      "type": "VEC2"
    },
    {
      "bufferView": 0,
      "byteOffset": 12288,
      "componentType": 5125,
      "count": 822,
      "type": "SCALAR"
    },
    {
      "bufferView": 2,
      "byteOffset": 45432,
      "componentType": 5126,
      "count": 3910,
      "max": [
        96.06234741210938,
        96.06234741210938,
        65.4311294555664
      ],
      "min": [
        -96.06234741210938,
        -96.06234741210938,
        -95.68183898925781
      ],
      "type": "VEC3"
    },
    {
      "bufferView": 2,
      "byteOffset": 92352,
      "componentType": 5126,
      "count": 3910,
      "max": [
        1.0,
        0.9999985098838806,
        1.0
      ],
      "min": [
        -0.9999985098838806,
        -0.9999985694885254,
        -1.0
      ],
      "type": "VEC3"
    },
    {
      "bufferView": 1,
      "byteOffset": 15144,
      "componentType": 5126,
      "count": 3910,
      "max": [
        89.77655029296875,
        96.06234741210938
      ],
      "min": [
        -96.06234741210938,
        -80.92601013183594
      ],
      "type": "VEC2"
    },
    {
      "bufferView": 0,
      "byteOffset": 15576,
      "componentType": 5125,
      "count": 6951,
      "type": "SCALAR"
    },
    {
      "bufferView": 2,
      "byteOffset": 139272,
      "componentType": 5126,
      "count": 1356,
      "max": [
        51.95674514770508,
        80.92601013183594,
        95.27628326416016
      ],
      "min": [
        -51.95674514770508,
        -80.92601013183594,
        6.999223709106445
      ],
      "type": "VEC3"
    },
    {
      "bufferView": 2,
      "byteOffset": 155544,
      "componentType": 5126,
      "count": 1356,
      "max": [
        0.540263831615448,
        0.8414961099624634,
        1.0
      ],
      "min": [
        -0.8417212963104248,
        -0.8414958119392395,
        -1.0
      ],
      "type": "VEC3"
    },
    {
      "bufferView": 1,
      "byteOffset": 46424,
      "componentType": 5126,
      "count": 1356,
      "max": [
        1.335683822631836,
        1.3232816457748413
      ],
      "min": [
        -1.335683822631836,
        -0.9098069071769714
      ],
      "type": "VEC2"
    },
    {
      "bufferView": 0,
      "byteOffset": 43380,
      "componentType": 5125,
      "count": 2802,
      "type": "SCALAR"
    },
    {
      "bufferView": 2,
      "byteOffset": 171816,
      "componentType": 5126,
      "count": 374,
      "max": [
        51.95674514770508,
        80.92601013183594,
        8.999223709106445
      ],
      "min": [
        -96.06234741210938,
        -96.06234741210938,
        4.999223709106445
      ],
      "type": "VEC3"
    },
    {
      "bufferView": 2,
      "byteOffset": 176304,
      "componentType": 5126,
      "count": 374,
      "max": [
        1.0,
        1.0,
        0.0
      ],
      "min": [
        -1.0,
        -1.0,
        -1.0
      ],
      "type": "VEC3"
    },
    {
      "bufferView": 1,
      "byteOffset": 57272,
      "componentType": 5126,
      "count": 374,
      "max": [
        1.33419930934906,
        1.1239722967147827
      ],
      "min": [
        -1.081916332244873,
        -1.33419930934906
      ],
      "type": "VEC2"
    },
    {
      "bufferView": 0,
      "byteOffset": 54588,
      "componentType": 5125,
      "count": 963,
      "type": "SCALAR"
    },
    {
      "bufferView": 2,
      "byteOffset": 180792,
      "componentType": 5126,
      "count": 375,
      "max": [
        -17.38861656188965,
        9.318601608276367,
        19.397079467773438
      ],
      "min": [
        -89.79842376708984,
        -33.204612731933594,
        6.874223709106445
      ],
      "type": "VEC3"
    },
    {
      "bufferView": 2,
      "byteOffset": 185292,
      "componentType": 5126,
      "count": 375,
      "max": [
        0.23643381893634796,
        -0.0,
        0.12272752821445465
      ],
      "min": [
        0.0,
        -1.0,
        -1.0
      ],
      "type": "VEC3"
    },
    {
      "bufferView": 1,
      "byteOffset": 60264,
      "componentType": 5126,
      "count": 375,
      "max": [
        1.0,
        1.0
      ],
      "min": [
        0.0,
        0.0
      ],
      "type": "VEC2"
    },
    {
      "bufferView": 0,
      "byteOffset": 58440,
      "componentType": 5125,
      "count": 450,
      "type": "SCALAR"
    }
  ],
  "asset": {
    "extras": {
      "author": "notos (https://sketchfab.com/notos)",
      "license": "CC-BY-4.0 (http://creativecommons.org/licenses/by/4.0/)",
      "source": "https://sketchfab.com/3d-models/cell-model-for-biology-41bc3f762c8547fbad78a27ef2263125",
      "title": "Cell Model for Biology"
    },
    "generator": "Sketchfab-12.67.0",
    "version": "2.0"
  },
  "bufferViews": [
    {
      "buffer": 0,
      "byteLength": 60240,
      "name": "floatBufferViews",
      "target": 34963
    },
    {
      "buffer": 0,
      "byteLength": 63264,
      "byteOffset": 60240,
      "byteStride": 8,
      "name": "floatBufferViews",
      "target": 34962
    },
    {
      "buffer": 0,
      "byteLength": 189792,
      "byteOffset": 123504,
      "byteStride": 12,
      "name": "floatBufferViews",
      "target": 34962
    }
  ],
  "buffers": [
    {
      "byteLength": 313296,
      "uri": "scene.bin"
    }
  ],
  "materials": [
    {
      "doubleSided": true,
      "name": "0022_Mar",
      "pbrMetallicRoughness": {
        "baseColorFactor": [
          0.501961,
          0.0,
          0.0,
          1.0
        ],
        "metallicFactor": 0.0,
        "roughnessFactor": 0.6
      }
    },
    {
      "doubleSided": true,
      "name": "0135_Dar",
      "pbrMetallicRoughness": {
        "baseColorFactor": [
          0.317647,
          0.317647,
          0.317647,
          1.0
        ],
        "metallicFactor": 0.0,
        "roughnessFactor": 0.6
      }
    },
    {
      "doubleSided": true,
      "name": "Color_01",
      "pbrMetallicRoughness": {
        "baseColorFactor": [
          1.0,
          1.0,
          0.6,
          1.0
        ],
        "metallicFactor": 0.0,
        "roughnessFactor": 0.6
      }
    },
    {
      "doubleSided": true,
      "name": "Color_E0",
      "pbrMetallicRoughness": {
        "baseColorFactor": [
          0.8,
          0.8,
          0.317647,
          1.0
        ],
        "metallicFactor": 0.0,
        "roughnessFactor": 0.6
      }
    },
    {
      "doubleSided": true,
      "name": "Color_E1",
      "pbrMetallicRoughness": {
        "baseColorFactor": [
          0.6,
          0.6,
          0.0,
          1.0
        ],
        "metallicFactor": 0.0,
        "roughnessFactor": 0.6
      }
    },
    {
      "doubleSided": true,
      "name": "Color_F0",
      "pbrMetallicRoughness": {
        "baseColorFactor": [
          0.698039,
          1.0,
          0.396078,
          1.0
        ],
        "metallicFactor": 0.0,
        "roughnessFactor": 0.6
      }
    },
    {
      "doubleSided": true,
      "name": "Color_H0",
      "pbrMetallicRoughness": {
        "baseColorFactor": [
          0.0,
          1.0,
          1.0,
          1.0
        ],
        "metallicFactor": 0.0,
        "roughnessFactor": 0.6
      }
    },
    {
      "doubleSided": true,
      "name": "Color_H1",
      "pbrMetallicRoughness": {
        "baseColorFactor": [
          0.117647,
          0.6,
          0.6,
          1.0
        ],
        "metallicFactor": 0.0,
        "roughnessFactor": 0.6
      }
    },
    {
      "doubleSided": true,
      "name": "FrontCol",
      "pbrMetallicRoughness": {
        "metallicFactor": 0.0,
        "roughnessFactor": 0.6
      }
    },
    {
      "alphaMode": "BLEND",
      "doubleSided": true,
      "name": "Transluc",
      "pbrMetallicRoughness": {
        "baseColorFactor": [
          0.486275,
          0.541176,
          0.709804,
          0.52
        ],
        "metallicFactor": 0.0,
        "roughnessFactor": 0.6
      }
    },
    {
      "alphaMode": "BLEND",
      "doubleSided": true,
      "name": "Translu",
      "pbrMetallicRoughness": {
        "baseColorFactor": [
          0.486275,
          0.541176,
          0.709804,
          0.52
        ],
        "metallicFactor": 0.0,
        "roughnessFactor": 0.6
      }
    },
    {
      "doubleSided": true,
      "name": "Foregrou",
      "pbrMetallicRoughness": {
        "baseColorFactor": [
          0.0,
          0.0,
          0.0,
          1.0
        ],
        "metallicFactor": 0.0,
        "roughnessFactor": 0.6
      }
    }
  ],
  "meshes": [
    {
      "name": "Object_0",
      "primitives": [
        {
          "attributes": {
            "NORMAL": 1,
            "POSITION": 0,
            "TEXCOORD_0": 2
          },
          "indices": 3,
          "material": 8,
          "mode": 4
        }
      ]
    },
    {
      "name": "Object_1",
      "primitives": [
        {
          "attributes": {
            "NORMAL": 5,
            "POSITION": 4,
            "TEXCOORD_0": 6
          },
          "indices": 7,
          "material": 0,
          "mode": 4
        }
      ]
    },
    {
      "name": "Object_2",
      "primitives": [
        {
          "attributes": {
            "NORMAL": 9,
            "POSITION": 8,
            "TEXCOORD_0": 10
          },
          "indices": 11,
          "material": 1,
          "mode": 4
        }
      ]
    },
    {
      "name": "Object_3",
      "primitives": [
        {
          "attributes": {
            "NORMAL": 13,
            "POSITION": 12,
            "TEXCOORD_0": 14
          },
          "indices": 15,
          "material": 2,
          "mode": 4
        }
      ]
    },
    {
      "name": "Object_4",
      "primitives": [
        {
          "attributes": {
            "NORMAL": 17,
            "POSITION": 16,
            "TEXCOORD_0": 18
          },
          "indices": 19,
          "material": 3,
          "mode": 4
        }
      ]
    },
    {
      "name": "Object_5",
      "primitives": [
        {
          "attributes": {
            "NORMAL": 21,
            "POSITION": 20,
            "TEXCOORD_0": 22
          },
          "indices": 23,
          "material": 4,
          "mode": 4
        }
      ]
    },
    {
      "name": "Object_6",
      "primitives": [
        {
          "attributes": {
            "NORMAL": 25,
            "POSITION": 24,
            "TEXCOORD_0": 26
          },
          "indices": 27,
          "material": 5,
          "mode": 4
        }
      ]
    },
    {
      "name": "Object_7",
      "primitives": [
        {
          "attributes": {
            "NORMAL": 29,
            "POSITION": 28,
            "TEXCOORD_0": 30
          },
          "indices": 31,
          "material": 6,
          "mode": 4
        }
      ]
    },
    {
      "name": "Object_8",
      "primitives": [
        {
          "attributes": {
            "NORMAL": 33,
            "POSITION": 32,
            "TEXCOORD_0": 34
          },
          "indices": 35,
          "material": 7,
          "mode": 4
        }
      ]
    },
    {
      "name": "Object_9",
      "primitives": [
        {
          "attributes": {
            "NORMAL": 37,
            "POSITION": 36,
            "TEXCOORD_0": 38
          },
          "indices": 39,
          "material": 8,
          "mode": 4
        }
      ]
    },
    {
      "name": "Object_10",
      "primitives": [
        {
          "attributes": {
            "NORMAL": 41,
            "POSITION": 40,
            "TEXCOORD_0": 42
          },
          "indices": 43,
          "material": 9,
          "mode": 4
        }
      ]
    },
    {
      "name": "Object_11",
      "primitives": [
        {
          "attributes": {
            "NORMAL": 45,
            "POSITION": 44,
            "TEXCOORD_0": 46
          },
          "indices": 47,
          "material": 10,
          "mode": 4
        }
      ]
    },
    {
      "name": "Object_12",
      "primitives": [
        {
          "attributes": {
            "NORMAL": 49,
            "POSITION": 48,
            "TEXCOORD_0": 50
          },
          "indices": 51,
          "material": 11,
          "mode": 4
        }
      ]
    }
  ],
  "nodes": [
    {
      "children": [
        1
      ],
      "matrix": [
        1.0,
        0.0,
        0.0,
        0.0,
        0.0,
        2.220446049250313e-16,
        -1.0,
        0.0,
        0.0,
        1.0,
        2.220446049250313e-16,
        0.0,
        0.0,
        0.0,
        0.0,
        1.0
      ],
      "name": "Sketchfab_model"
    },
    {
      "children": [
        2
      ],
      "name": "e11a500c930942dea6a8694420c13763.3ds"
    },
    {
      "children": [
        5,
        6,
        7,
        8,
        9,
        10,
        11,
        12,
        13,
        14,
        15,
        16,
        3
      ],
      "name": "Model"
    },
    {
      "children": [
        4
      ],
      "name": "Nucleus1"
    },
    {
      "mesh": 0,
      "name": "Object_4"
    },
    {
      "mesh": 1,
      "name": "Object_5"
    },
    {
      "mesh": 2,
      "name": "Object_6"
    },
    {
      "mesh": 3,
      "name": "Object_7"
    },
    {
      "mesh": 4,
      "name": "Object_8"
    },
    {
      "mesh": 5,
      "name": "Object_9"
    },
    {
      "mesh": 6,
      "name": "Object_10"
    },
    {
      "mesh": 7,
      "name": "Object_11"
    },
    {
      "mesh": 8,
      "name": "Object_12"
    },
    {
      "mesh": 9,
      "name": "Object_13"
    },
    {
      "mesh": 10,
      "name": "Object_14"
    },
    {
      "mesh": 11,
      "name": "Object_15"
    },
    {
      "mesh": 12,
      "name": "Object_16"
    }
  ],
  "scene": 0,
  "scenes": [
    {
      "name": "Sketchfab_Scene",
      "nodes": [
        0
      ]
    }
  ]
}
